<?xml version="1.0" encoding="UTF-8" standalone="no"?>
<svg xmlns:svg="http://www.w3.org/2000/svg" xmlns="http://www.w3.org/2000/svg"
 width="635.90625" height="605.1875" version="1.0">
  <defs
     id="defs5">
<clipPath id="cp1">
<path d="M317.75,510.25a176,176 0 0 0 0-352a176,176 0 0 0 0,352V606H0V0H636V606H317.75z"/>
</clipPath>
  </defs>
<g clip-path="url(#cp1)">
<path fill="#ccc" d="M317.953,206.5V0l121.584,295l196.369-63.984L393.787,439l120.666,165.781L242.12,439
L121.453,604.781L196.37,295L0,231.016L317.953,206.5z"/>
<path d="M635.906,231.016L439.537,295l74.916,309.781L393.787,439L121.453,604.781L242.12,439
L0,231.016L196.37,295L317.953,0v206.5L635.906,231.016z"/>
</g>
<circle cx="317.75" cy="334.25" r="140"/>
</svg>