<svg id="svg5" width="170mm" height="220mm" version="1.1" viewBox="0 0 170 220" xmlns="http://www.w3.org/2000/svg" xmlns:xlink="http://www.w3.org/1999/xlink">
  <g id="layer4">
    <rect id="bounds" y="7.7929e-7" width="170" height="215" display="none" fill="none" stop-color="#000000" stroke="#1a1a1a" stroke-opacity=".18517" stroke-width=".49428"/>
    <g id="pattern_2">
      <path id="pattern_2-base" transform="scale(.26458)" d="m470.12 0-48.818 221.21 221.21-42.66v-178.55zm-148.87 18.898v301.88l28.008-27.215 110.07-274.67zm0 301.88v236.64l125.29 234.02-25.957-7.6992-99.332-193.28v241.03h321.26v-188.98l-166.78-166.81 53.016 295.51-171.82-415.05zm125.29 470.66c-297.7-527.63-148.85-263.82 0 0zm-274.15-791.45 48.818 221.21-221.21-42.66v-178.55zm148.87 18.898v301.88l-28.008-27.215-110.07-274.67zm0 301.88v236.64l-125.29 234.02 25.957-7.6992 99.332-193.28v241.03h-321.26v-188.98l166.78-166.81-53.016 295.51 171.82-415.05zm-125.29 470.66c297.7-527.63 148.85-263.82 0 0z" fill="#76a1bf"/>
      <path id="pattern_2-camo_1" transform="scale(.26458)" d="m83.519 0-83.519 58.711v98.836l24.726 25.774 35.108 6.7704 51.551-190.09zm519.31 23.477-53.385 19.893 74.176 58.799 18.898-36.207zm-35.18 51.393-116.63 115.08 123.08 1.798zm-266.38 344.57-53.635 28.693-65.246 158.15 102.7 18.695 36.168-67.555 41.98 78.414 25.889-56.627 3.4286-98.972zm131.84 120.73-28.166 120.2 28.491 17.556-10.308 69.766 12.16 22.713 67.344-61.109zm-111.85 50.297-19.312 37.578 42.219 7.6855 9.378 195.76 58.785-2e-5c-5.3634-39.195-36.14-115.78-40.851-143.31zm259.99 33.223-28.883-0.0694-9.3631 86.091 45.234 102.88 54.283-65.686v-40.766zm-327.59 3.5684 0.71093 55.113 15.746-29.412zm-85.027 11.428-25.664 61.994 80.12 7.1838 4.8984-26.328zm-65.403 28.384-103.22 43.707v73.043l109.57-72.031zm175.52 6.123-23.896 46.498 1.4414 111.8h48.047c-5.7519-42.573-23.301-144.96-25.592-158.3z" display="inline" fill="#425d7a"/>
    </g>
    <g id="parts">
      <ellipse id="radar" cx="85" cy="85.271" rx="17.524" ry="17.871" fill="#666666" stop-color="#000000"/>
      <path id="cockpit" d="m80.945 137.78c1.9189 3.3769 4.0551 5.4488 4.0551 5.4488s2.1361-2.0719 4.055-5.4488zm4.0551-24.908s-6.0363-0.18444-6.9949 13.223c-0.69243 9.6849 6.9949 17.134 6.9949 17.134s7.6873-7.449 6.9949-17.134c-0.9586-13.408-6.9949-13.223-6.9949-13.223z" fill="#000000"/>
      <path id="cockPitBorder" d="m78.176 129.23h13.813m-10.905 8.6783h7.9353m-4.0189-25.034s-6.0363-0.18444-6.9949 13.223c-0.69243 9.6849 6.9949 17.134 6.9949 17.134s7.6873-7.449 6.9949-17.134c-0.9586-13.408-6.9949-13.223-6.9949-13.223z" fill="none" stroke="#666666"/>
    </g>
    <g id="decal">
      <path id="text" d="m96.737 201.79q0.11144-0.12432 0.25527-0.27793 0.13848-0.15488 0.28817-0.32133 0.14765-0.16981 0.29534-0.33955 0.14765-0.16981 0.27087-0.31977-0.19527 0.0616-0.42038 0.14173-0.22714 0.0768-0.46343 0.16849-0.23631 0.0917-0.4673 0.18462-0.23631 0.0917-0.45199 0.17977l-0.32866-0.53966q0.64728-0.24137 1.3334-0.45636 0.68413-0.21833 1.3249-0.37299l0.29011 0.47638q-0.24694 0.31408-0.52774 0.64002-0.28412 0.32799-0.57027 0.65265 0.41599-0.11146 0.83198-0.22292 0.41267-0.10941 0.80163-0.1903l0.29011 0.47636q-0.4257 0.50777-0.92522 1.0292-0.50154 0.51814-1.0068 0.99269l-0.34286-0.56298q0.17513-0.15466 0.36275-0.3263 0.18431-0.16957 0.3699-0.34455 0.18561-0.17494 0.35794-0.34169 0.1703-0.1701 0.31082-0.32163-0.1988 0.0408-0.41545 0.0974-0.21666 0.0565-0.43126 0.11636-0.2146 0.0599-0.4099 0.12145-0.19733 0.0582-0.3521 0.10392zm4.2006 2.2577-2.2952 1.4256-0.94134-1.5457 0.43386-0.26949 0.62486 1.026 0.48023-0.29829-0.55588-0.91276 0.43387-0.26949 0.55588 0.91276 0.94722-0.58836zm-1.025 2.1472q0.24803 0.025 0.53601 0.0481t0.5575-7e-3l-0.31852-0.52301zm-0.89898-0.11196 1.3778-0.85579-0.15012-0.24651 0.40406-0.25098 0.15012 0.24651 0.51335-0.31886 0.2962 0.48636-0.51335 0.31887 0.6066 0.99605-0.361 0.22423q-0.19034 0.0172-0.43947 0.0204-0.25242 5e-3 -0.52566-9e-3 -0.27859-0.0152-0.55535-0.0499-0.27676-0.0347-0.5171-0.092zm2.9849 1.236q-0.0961 0.0597-0.14256 0.14819-0.0498 0.0906-0.0346 0.22808 0.0152 0.13746 0.0983 0.33381t0.24941 0.46951q-0.33034 0.15464-0.66248 0.32884-0.33213 0.1742-0.61848 0.33363l-0.76078-1.2492 0.41399-0.25715 0.50719 0.83281q0.12306-0.0678 0.242-0.12732 0.11312-0.0616 0.20225-0.10264-0.26308-0.50692-0.20766-0.85816 0.0501-0.35251 0.39452-0.56645 0.15898-0.0988 0.32927-0.12644 0.1703-0.0277 0.33862 0.0238 0.16833 0.0515 0.33013 0.1898 0.15978 0.13492 0.29976 0.36478 0.0548 0.0899 0.10239 0.19811 0.0489 0.10277 0.0858 0.20839 0.0382 0.10023 0.063 0.18586 0.0247 0.0856 0.0292 0.13795l-0.46215 0.16309q-0.0143-0.10591-0.061-0.26512-0.0501-0.15715-0.1657-0.34703-0.13998-0.22986-0.2923-0.27759-0.15563-0.0457-0.27817 0.0305zm2.1454 1.8814q0.0548 0.0899 0.10239 0.19811 0.0509 0.1061 0.0879 0.21172 0.0369 0.10562 0.0604 0.19664 0.0235 0.091 0.03 0.14666l-0.46952 0.15849q-0.0163-0.10924-0.0544-0.26924-0.0434-0.16126-0.16516-0.36114-0.13998-0.22985-0.29102-0.28297-0.15103-0.0531-0.29675 0.0374-0.0894 0.0555-0.1247 0.13255-0.0406 0.0757-0.0365 0.16499 8.5e-4 0.0913 0.0444 0.19281 0.0382 0.10023 0.1011 0.2035l0.11767 0.19321-0.39743 0.24686-0.1339-0.21986q-0.0446-0.0733-0.0984-0.13169-0.0558-0.0617-0.11812-0.0965-0.0656-0.0327-0.13683-0.0298-0.0766 2e-3 -0.15937 0.0531-0.0629 0.0391-0.0931 0.0946-0.0301 0.0555-0.0336 0.11727-5e-3 0.0585 0.0158 0.12335 0.0159 0.0636 0.0504 0.12022 0.0872 0.14324 0.20535 0.23976 0.11608 0.0932 0.23988 0.15403l-0.25348 0.40079q-0.0656-0.0327-0.14461-0.08-0.0811-0.0506-0.16363-0.11876-0.0826-0.0681-0.16126-0.15236-0.0807-0.0876-0.14768-0.19753-0.12376-0.2032-0.16334-0.38064-0.0449-0.17871-0.0143-0.33085 0.0273-0.1501 0.1181-0.2708 0.0875-0.11866 0.22661-0.20506 0.13579-0.0844 0.31163-0.0879 0.17253-2e-3 0.31788 0.0872-0.0367-0.22514 0.0502-0.41227 0.0816-0.1884 0.28358-0.31388 0.15897-0.0988 0.32721-0.12982 0.16492-0.029 0.33327 0.0226 0.16502 0.0536 0.32885 0.19519 0.15848 0.14032 0.30456 0.38017zm-5.0556-0.0906q-0.08167 0.16322-0.16372 0.36953-0.08829 0.20481-0.1585 0.43056-0.07645 0.22425-0.13035 0.45057-0.05776 0.22871-0.08074 0.43583l1.1321-0.70322 0.36923 0.60629-2.6777 1.6632-0.36923-0.60629 1.0124-0.62882q-0.39167-0.0835-0.80266-0.15493-0.41723-0.073-0.77064-0.13735l-0.43787-0.71899q0.49262 0.0743 0.96442 0.16696 0.46944 0.0887 0.96167 0.20615 0.07017-0.48817 0.25499-1.0154 0.18246-0.53114 0.45877-1.0831zm1.5763 2.5884q-0.11308 0.12913-0.22676 0.27476-0.11607 0.14172-0.23213 0.28345l0.63906 1.0494q0.1776-0.0407 0.35757-0.0775 0.17759-0.0407 0.34273-0.0843l0.38344 0.62961q-0.52507 0.11723-0.97499 0.20921-0.44992 0.092-0.85259 0.16533-0.40505 0.0695-0.77059 0.1251-0.37176 0.0542-0.73281 0.0909l-0.35267-0.57909q0.19773-0.30494 0.41329-0.61559 0.21169-0.30826 0.45815-0.63812 0.2441-0.33374 0.52833-0.69777t0.62468-0.78441zm-1.6285 2.0132q0.06979-0.0166 0.19393-0.0401 0.12414-0.0235 0.28628-0.0546 0.16214-0.0311 0.35843-0.0673 0.19393-0.0401 0.40567-0.0859l-0.46627-0.76563q-0.13602 0.17017-0.25893 0.32688-0.12291 0.15671-0.22116 0.29271-0.10061 0.13212-0.1774 0.2334-0.07679 0.10127-0.12056 0.16057z" fill="#b3b3b3" stroke-width=".24372"/>
      <image id="roundel_2" transform="rotate(245.56)" x="-224.32" y="30.173" width="13.571" height="7.1848" preserveAspectRatio="xMidYMid" xlink:href="../fe/src/assets/roundels/us_white.svg"/>
      <image id="roundel_1" transform="rotate(82.162)" x="17.144" y="-9.8" width="13.571" height="7.1848" preserveAspectRatio="xMidYMid" xlink:href="../fe/src/assets/roundels/us_white.svg"/>
    </g>
    <path id="guide" d="m58.701 58.701-58.701-11.459m111.47 11.287 58.529-11.287m-170 122.76 170-170m-170 210h170m-170-210v220h170v-220l-170-6e-14m0 5h170m-170-5 170 170" fill="none" stroke="#b3b3b3" stroke-width=".26458px"/>
  </g>
</svg>
