<svg id="svg5" width="170mm" height="220mm" version="1.1" viewBox="0 0 170 220" xmlns="http://www.w3.org/2000/svg" xmlns:xlink="http://www.w3.org/1999/xlink">
  <g id="layer4">
    <rect id="bounds" y="7.7929e-7" width="170" height="215" display="none" fill="none" stop-color="#000000" stroke="#1a1a1a" stroke-opacity=".18517" stroke-width=".49428"/>
    <g id="pattern_1">
      <path id="pattern_1-base" transform="scale(.26458)" d="m470.12 0-48.818 221.21 221.21-42.66v-178.55zm-148.87 18.898v301.88l28.008-27.215 110.07-274.67zm0 301.88v236.64l125.29 234.02-25.957-7.6992-99.332-193.28v241.03h321.26v-188.98l-166.78-166.81 53.016 295.51-171.82-415.05zm125.29 470.66c-297.7-527.63-148.85-263.82 0 0zm-274.15-791.45 48.818 221.21-221.21-42.66v-178.55zm148.87 18.898v301.88l-28.008-27.215-110.07-274.67zm0 301.88v236.64l-125.29 234.02 25.957-7.6992 99.332-193.28v241.03h-321.26v-188.98l166.78-166.81-53.016 295.51 171.82-415.05zm-125.29 470.66c297.7-527.63 148.85-263.82 0 0z" fill="#cccccc"/>
      <path id="pattern_1-camo_1" transform="scale(.26458)" d="m569.74 0-14.023 53.764 16.449 37.188 70.357-3.2578v-87.693zm-569.74 4.7852v92.268c13.576 11.146 29.221 40.456 40.575 89.325l50.935 9.8225-6.0839-87.973zm464.19 22.093-19.444 88.11 53.862 50.841 14.758 37.631 77.368-14.92c-19.095-20.771-36.56-37.726-44.507-68.515-8.922-34.564-31.909-57.699-31.909-57.699zm-113.85 322.75c-19.374 3.5824-44.863 7.0533-63.16 4.9473l-1.5957 1.584-49.73 120.13c23.993 22.723 78.104 51.826 157.66-31.756l-36.584-88.375zm70.594 161.15-92.486 60.082 30.293 56.582c35.943-8.353 67.447-27.293 87.844-54.707zm-211.11 28.398-28.439 68.697c11.765-4.5209 27.692-6.1273 46.654 3.3789 17.773 8.9099 36.252 14.845 54.727 18.078l29.848-55.752zm111.44 51.297-21.133 41.119c14.153 1.1909 28.163 0.78488 41.725-1.0508zm280.74 11.52-58.652 33.664-5.4141 146.25-25.404 49.594h97.82c8.4802-18.464 12.086-42.41-3.5586-67.949-31.641-51.653-24.805-57.743 35.732-112.09v-8.9336zm-563.98 90.319c-15.365 0.34235-19.115-27.204-38.012-23.025l1e-5 162.21h50.527c23.243-37.795-4.2077-52.446 21.163-94.378 13.973-23.095-8.1539-45.379-33.678-44.811zm283.25 39.255-108.19 99.934h85.486s-0.97735-22.995 7.8459-27.45c8.2064-4.1439 5.0384-25.918 14.854-25.463 9.7162 0.45031 7.557 22.572 15.248 28.526 7.1122 5.5068 8.1399 16.319 6.4849 24.387 13.124 0.0563 74.756 2e-5 74.756 2e-5h2.3125z" fill="#666666"/>
      <path id="pattern_1-camo_2" d="m69.339 109.27s4.7876 9.1613 15.661 12.492c10.874 3.3304 14.358-15.641 14.358-15.641l-4.9195-11.884-9.4382-9.3596-9.4382 9.3596zm-68.724-109.27c-0.21194 0.089448-0.36174 0.15348-0.36174 0.15348s-2.7338 2.2959 9.7798 22.437c7.9718 12.831 10.802 24.266 11.429 28.79l10.506 2.0261s6.6152-19.109 6.119-25.239c-0.97752-12.075-24.682-15.855-22.158-28.168zm135.14 0c1.3342 1.8673 5.1692 7.7927 7.366 17.136 2.6832 11.412 6.9509 11.798 12.334 10.434 12.921-3.2726 11.5 3.0536 14.55 3.4751l-4e-5 -14.427c-4.0879 1.2537-7.7543 2.5117-8.3416 3.1724-1.4263 1.6046-12.989 4.4961-10.707-8.0522 0.99469-5.4703 2.6014-9.232 4.0979-11.738zm-17.331 27.041-3.4246 15.518s12.198 0.24761 13.721 12.644l13.162-2.5382c-5.9157-12.781-23.458-25.624-23.458-25.624zm-10.012 100.94c-3.5334 4.3238-15.14 17.902-23.215 19.868l4.8679 9.0925c10.28-3.0256 19.126-14.545 22.374-19.23zm-50.389 8.632-5.3253 12.863c6.1306 2.7091 16.388 6.604 27.047 7.8347l5.0204-9.3772c-0.50993 0.0985-1.0085 0.16092-1.4836 0.154-7.2167-0.10523-19.764-7.8475-25.259-11.475zm26.981 19.618-0.73381 1.4278c0.15484 6e-3 0.30981 0.0163 0.46457 0.0207 0.33595 0.01 0.6702-5e-3 1.0046-0.0176zm72.376 1.1462c-2.4789 1.7191-9.2577 5.2944-24.496 7.5525l7.0187 39.122-15.567-37.603c-12.543 3.2578-11.181 9.7355-21.469 14.405l15.286 28.553-6.8678-2.0371-12.79-24.887c-0.84912 0.26001-1.7374 0.5138-2.7094 0.75344-11.716 2.8886-17.883 2.2392-24.543-0.22737l-12.52 24.361-6.8678 2.0371 15.08-28.168c-3.8191-1.6901-8.1379-3.7976-13.896-6.0689-3.471-1.369-6.6713-2.4325-9.6253-3.2649l-3.6706 8.8666c12.927 3.3937-0.9262 33.727-4.5769 39.232h36.562c2.6068-3.9836 2.7936-9.0349 6.6382-11.757 3.5733-2.5299 4.0314-7.7732 6.6382-11.757 0 0 4.3676 11.962 7.7138 13.798 3.9129 2.1467 5.1005 9.716 5.1005 9.716h45.017c2.448-6.6725 6.5967-20.624 4.0096-33.145-0.55614-2.6915 1.9011-20.461 9.1199-23.032 3.1512-1.1224 5.0056-1.5467 6.0952-1.7684zm-131.95 11.919c-3.4113-4.2936-12.924-6.2356-13.456 0.3576-0.49713 6.1568 11.612 10.373 21.872 10.957 0.16268-0.01 0.31111-0.0133 0.46922-0.0212l1.8604-10.37c-0.76574-0.74894-8.2508 2.217-10.746-0.92293z" fill="#000000"/>
    </g>
    <g id="parts">
      <ellipse id="radar" cx="85" cy="85.271" rx="17.524" ry="17.871" fill="#666666" stop-color="#000000"/>
      <path id="cockpit" d="m80.945 137.78c1.9189 3.3769 4.0551 5.4488 4.0551 5.4488s2.1361-2.0719 4.055-5.4488zm4.0551-24.908s-6.0363-0.18444-6.9949 13.223c-0.69243 9.6849 6.9949 17.134 6.9949 17.134s7.6873-7.449 6.9949-17.134c-0.9586-13.408-6.9949-13.223-6.9949-13.223z" fill="#000000"/>
      <path id="cockPitBorder" d="m78.176 129.23h13.813m-10.905 8.6783h7.9353m-4.0189-25.034s-6.0363-0.18444-6.9949 13.223c-0.69243 9.6849 6.9949 17.134 6.9949 17.134s7.6873-7.449 6.9949-17.134c-0.9586-13.408-6.9949-13.223-6.9949-13.223z" fill="none" stroke="#666666"/>
    </g>
    <g id="decal">
      <path id="text" d="m96.737 201.79q0.11144-0.12432 0.25527-0.27793 0.13848-0.15488 0.28817-0.32133 0.14765-0.16981 0.29534-0.33955 0.14765-0.16981 0.27087-0.31977-0.19527 0.0616-0.42038 0.14173-0.22714 0.0768-0.46343 0.16849-0.23631 0.0917-0.4673 0.18462-0.23631 0.0917-0.45199 0.17977l-0.32866-0.53966q0.64728-0.24137 1.3334-0.45636 0.68413-0.21833 1.3249-0.37299l0.29011 0.47638q-0.24694 0.31408-0.52774 0.64002-0.28412 0.32799-0.57027 0.65265 0.41599-0.11146 0.83198-0.22292 0.41267-0.10941 0.80163-0.1903l0.29011 0.47636q-0.4257 0.50777-0.92522 1.0292-0.50154 0.51814-1.0068 0.99269l-0.34286-0.56298q0.17513-0.15466 0.36275-0.3263 0.18431-0.16957 0.3699-0.34455 0.18561-0.17494 0.35794-0.34169 0.1703-0.1701 0.31082-0.32163-0.1988 0.0408-0.41545 0.0974-0.21666 0.0565-0.43126 0.11636-0.2146 0.0599-0.4099 0.12145-0.19733 0.0582-0.3521 0.10392zm4.2006 2.2577-2.2952 1.4256-0.94134-1.5457 0.43386-0.26949 0.62486 1.026 0.48023-0.29829-0.55588-0.91276 0.43387-0.26949 0.55588 0.91276 0.94722-0.58836zm-1.025 2.1472q0.24803 0.025 0.53601 0.0481t0.5575-7e-3l-0.31852-0.52301zm-0.89898-0.11196 1.3778-0.85579-0.15012-0.24651 0.40406-0.25098 0.15012 0.24651 0.51335-0.31886 0.2962 0.48636-0.51335 0.31887 0.6066 0.99605-0.361 0.22423q-0.19034 0.0172-0.43947 0.0204-0.25242 5e-3 -0.52566-9e-3 -0.27859-0.0152-0.55535-0.0499-0.27676-0.0347-0.5171-0.092zm2.9849 1.236q-0.0961 0.0597-0.14256 0.14819-0.0498 0.0906-0.0346 0.22808 0.0152 0.13746 0.0983 0.33381t0.24941 0.46951q-0.33034 0.15464-0.66248 0.32884-0.33213 0.1742-0.61848 0.33363l-0.76078-1.2492 0.41399-0.25715 0.50719 0.83281q0.12306-0.0678 0.242-0.12732 0.11312-0.0616 0.20225-0.10264-0.26308-0.50692-0.20766-0.85816 0.0501-0.35251 0.39452-0.56645 0.15898-0.0988 0.32927-0.12644 0.1703-0.0277 0.33862 0.0238 0.16833 0.0515 0.33013 0.1898 0.15978 0.13492 0.29976 0.36478 0.0548 0.0899 0.10239 0.19811 0.0489 0.10277 0.0858 0.20839 0.0382 0.10023 0.063 0.18586 0.0247 0.0856 0.0292 0.13795l-0.46215 0.16309q-0.0143-0.10591-0.061-0.26512-0.0501-0.15715-0.1657-0.34703-0.13998-0.22986-0.2923-0.27759-0.15563-0.0457-0.27817 0.0305zm2.1454 1.8814q0.0548 0.0899 0.10239 0.19811 0.0509 0.1061 0.0879 0.21172 0.0369 0.10562 0.0604 0.19664 0.0235 0.091 0.03 0.14666l-0.46952 0.15849q-0.0163-0.10924-0.0544-0.26924-0.0434-0.16126-0.16516-0.36114-0.13998-0.22985-0.29102-0.28297-0.15103-0.0531-0.29675 0.0374-0.0894 0.0555-0.1247 0.13255-0.0406 0.0757-0.0365 0.16499 8.5e-4 0.0913 0.0444 0.19281 0.0382 0.10023 0.1011 0.2035l0.11767 0.19321-0.39743 0.24686-0.1339-0.21986q-0.0446-0.0733-0.0984-0.13169-0.0558-0.0617-0.11812-0.0965-0.0656-0.0327-0.13683-0.0298-0.0766 2e-3 -0.15937 0.0531-0.0629 0.0391-0.0931 0.0946-0.0301 0.0555-0.0336 0.11727-5e-3 0.0585 0.0158 0.12335 0.0159 0.0636 0.0504 0.12022 0.0872 0.14324 0.20535 0.23976 0.11608 0.0932 0.23988 0.15403l-0.25348 0.40079q-0.0656-0.0327-0.14461-0.08-0.0811-0.0506-0.16363-0.11876-0.0826-0.0681-0.16126-0.15236-0.0807-0.0876-0.14768-0.19753-0.12376-0.2032-0.16334-0.38064-0.0449-0.17871-0.0143-0.33085 0.0273-0.1501 0.1181-0.2708 0.0875-0.11866 0.22661-0.20506 0.13579-0.0844 0.31163-0.0879 0.17253-2e-3 0.31788 0.0872-0.0367-0.22514 0.0502-0.41227 0.0816-0.1884 0.28358-0.31388 0.15897-0.0988 0.32721-0.12982 0.16492-0.029 0.33327 0.0226 0.16502 0.0536 0.32885 0.19519 0.15848 0.14032 0.30456 0.38017zm-5.0556-0.0906q-0.08167 0.16322-0.16372 0.36953-0.08829 0.20481-0.1585 0.43056-0.07645 0.22425-0.13035 0.45057-0.05776 0.22871-0.08074 0.43583l1.1321-0.70322 0.36923 0.60629-2.6777 1.6632-0.36923-0.60629 1.0124-0.62882q-0.39167-0.0835-0.80266-0.15493-0.41723-0.073-0.77064-0.13735l-0.43787-0.71899q0.49262 0.0743 0.96442 0.16696 0.46944 0.0887 0.96167 0.20615 0.07017-0.48817 0.25499-1.0154 0.18246-0.53114 0.45877-1.0831zm1.5763 2.5884q-0.11308 0.12913-0.22676 0.27476-0.11607 0.14172-0.23213 0.28345l0.63906 1.0494q0.1776-0.0407 0.35757-0.0775 0.17759-0.0407 0.34273-0.0843l0.38344 0.62961q-0.52507 0.11723-0.97499 0.20921-0.44992 0.092-0.85259 0.16533-0.40505 0.0695-0.77059 0.1251-0.37176 0.0542-0.73281 0.0909l-0.35267-0.57909q0.19773-0.30494 0.41329-0.61559 0.21169-0.30826 0.45815-0.63812 0.2441-0.33374 0.52833-0.69777t0.62468-0.78441zm-1.6285 2.0132q0.06979-0.0166 0.19393-0.0401 0.12414-0.0235 0.28628-0.0546 0.16214-0.0311 0.35843-0.0673 0.19393-0.0401 0.40567-0.0859l-0.46627-0.76563q-0.13602 0.17017-0.25893 0.32688-0.12291 0.15671-0.22116 0.29271-0.10061 0.13212-0.1774 0.2334-0.07679 0.10127-0.12056 0.16057z" fill="#b3b3b3" stroke-width=".24372"/>
      <image id="roundel_2" transform="rotate(245.56)" x="-224.32" y="30.173" width="13.571" height="7.1848" preserveAspectRatio="xMidYMid" xlink:href="../fe/src/assets/roundels/us_white.svg"/>
      <image id="roundel_1" transform="rotate(82.162)" x="17.144" y="-9.8" width="13.571" height="7.1848" preserveAspectRatio="xMidYMid" xlink:href="../fe/src/assets/roundels/us_white.svg"/>
    </g>
    <path id="guide" d="m58.701 58.701-58.701-11.459m111.47 11.287 58.529-11.287m-170 122.76 170-170m-170 210h170m-170-210v220h170v-220l-170-6e-14m0 5h170m-170-5 170 170" fill="none" stroke="#b3b3b3" stroke-width=".26458px"/>
  </g>
</svg>
