<svg id="svg1" width="210mm" height="340mm" version="1.1" viewBox="0 0 210 340" xmlns="http://www.w3.org/2000/svg" xmlns:xlink="http://www.w3.org/1999/xlink">
 <defs id="defs1">
  <linearGradient id="linearGradient2" x1="105" x2="105" y1="128.9" y2="151.29" gradientUnits="userSpaceOnUse">
   <stop id="cockpit_0" stop-color="#000000" offset="0"/>
   <stop id="cockpit_1" stop-color="#8c1b6f" offset="1"/>
  </linearGradient>
 </defs>
 <rect id="tailBg" y="297" width="210.12" height="43" d="m 0,297 h 210.125 v 43 H 0 Z m 210,0 H -0.125 v 43 H 210 Z" fill="#ffffff"/>
 <g id="body">
  <g id="base" fill="#575c5c"> 
    <rect y="7.7929e-7" width="210" height="297" stroke-width=".25" style="stroke:#000000"/>
    <path transform="translate(0,-9.2604)" d="m123.06 340.13h35.47l8.329-27.881-14.375-0.28798zm-36.11 0h-35.47l-8.329-27.881 14.375-0.28798z"/>
  </g> 
  <path id="engine" d="m142.93 219-16.656 5.3903 9.1185-0.0407 9.4199 6e-3zm-75.859 0 16.656 5.3903-9.1185-0.0407-9.4199 6e-3z" fill="#000000"/>
  <path id="cockpit" transform="matrix(1 0 0 .87608 0 17.988)" d="m105 125.48-3.9805 0.35742-4.0449 6.4766-0.55078 16.506c1.3115 2.0465 2.7285 7.0137 2.7285 7.0137l5.8477 0.11133 5.8477-0.11133s1.417-4.9671 2.7285-7.0137l-0.55078-16.506-4.0449-6.4766z" fill="url(#linearGradient2)" stroke-width=".26927"/>
  <g id="accent" fill="#76786f">
   <path d="m68.355 214.2-3.5664 10.15 0.70703 0.25 3.0137-8.5781 0.92578 1.666 2.2461-0.98047 1.002 2.0547 2.1855-1.0391 1.3184 2.123 2.3594-0.83008 1.0547 2.1758 2.3906-1.127-0.32031-0.67969-1.7207 0.8125-1.0215-2.1133-2.4219 0.85351-1.3555-2.1797-2.1191 1.0078-0.99219-2.0332-2.2812 0.99609zm73.285 0-1.4043 2.5293-2.2812-0.99609-0.99219 2.0332-2.1191-1.0078-1.3555 2.1797-2.4219-0.85351-1.0215 2.1133-1.7207-0.8125-0.32031 0.67969 2.3906 1.127 1.0547-2.1758 2.3594 0.83008 1.3184-2.123 2.1856 1.0391 1.002-2.0547 2.2461 0.98047 0.92578-1.666 3.0137 8.5781 0.70703-0.25zm39.528-33.026 0.0322 1.4709 28.799 28.808-0.0277-1.4761zm0.57178 26.213 0.0212 0.96635 28.221 7.7804-2e-3 -0.9648zm0.0383 1.756 0.0212 0.96997 28.186 7.7732-2e-3 -0.97048zm23.562-197.37 0.80973 0.14337c-0.85691 0.95204-2.256 2.3599-2.256 2.3599l-0.13867 0.13281-4.2734-0.75586 0.13086-0.74024 3.8906 0.68945c0.14282-0.13862 1.0643-0.97116 1.8369-1.8295zm-0.39744 1.4447 4.3555 0.78506v0.76618l-4.1055-0.7446-1.1719 1.1504 0.80079 1.2656 4.4766 0.79353v0.7606l-4.9317-0.87249-1.3047-2.0586zm-200.28-1.4447-0.80973 0.14337c0.85691 0.95204 2.256 2.3599 2.256 2.3599l0.13867 0.13281 4.2734-0.75586-0.13086-0.74024-3.8906 0.68945c-0.14282-0.13862-1.0643-0.97116-1.8369-1.8295zm0.39744 1.4447-4.3555 0.78506v0.76618l4.1055-0.7446 1.1719 1.1504-0.80079 1.2656-4.4766 0.79353v0.7606l4.9317-0.87249 1.3047-2.0586zm137.62 56.486 1.4606-0.16135 65.863-65.838-1e-3 -1.3234zm-75.352 0-1.4606-0.16135-65.863-65.838 1e-3 -1.3234zm72.678 0.29545 1.4606-0.16135 68.538-68.522v-1.3152zm-70.004 0-1.4606-0.16135-68.538-68.522v-1.3152zm127.76 190.67-52.13 2e-3 0.88785-1.0781 51.721-0.0479zm-185.52 0 52.13 2e-3 -0.88785-1.0781-51.721-0.0479zm178.28-33.712 13.315 19.444-1.4063 3.3003-14.4-21.223zm-171.05 0-13.315 19.444 1.4063 3.3003 14.4-21.223zm178.28 33.712-52.13-2e-3 0.88785 1.0781 51.721 0.0479zm-185.52 0 52.13-2e-3 -0.88785 1.0781-51.721 0.0479zm178.28 33.712 13.315-19.444-1.4063-3.3003-14.4 21.223zm-171.05 0-13.315-19.444 1.4063-3.3003 14.4 21.223zm9.3541-113.22-0.0322 1.4709-28.799 28.808 0.0277-1.4761zm-0.57178 26.213-0.0212 0.96635-28.221 7.7804 2e-3 -0.9648zm-0.0383 1.756-0.0212 0.96997-28.186 7.7732 2e-3 -0.97048zm-23.562-197.37-0.80973 0.14337c0.85691 0.95204 2.256 2.3599 2.256 2.3599l0.13867 0.13281 4.2734-0.75586-0.13086-0.74024-3.8906 0.68945c-0.14282-0.13862-1.0643-0.97116-1.8369-1.8295zm0.39744 1.4447-4.3555 0.78506v0.76618l4.1055-0.7446 1.1719 1.1504-0.80079 1.2656-4.4766 0.79353v0.7606l4.9317-0.87249 1.3047-2.0586zm200.28-1.4447 0.80973 0.14337c-0.85691 0.95204-2.256 2.3599-2.256 2.3599l-0.13867 0.13281-4.2734-0.75586 0.13086-0.74024 3.8906 0.68945c0.14282-0.13862 1.0643-0.97116 1.8369-1.8295zm-0.39744 1.4447 4.3555 0.78506v0.76618l-4.1055-0.7446-1.1719 1.1504 0.80079 1.2656 4.4766 0.79353v0.7606l-4.9317-0.87249-1.3047-2.0586zm-137.62 56.486-1.4606-0.16135-65.863-65.838 1e-3 -1.3234zm75.352 0 1.4606-0.16135 65.863-65.838-1e-3 -1.3234zm-72.678 0.29545-1.4606-0.16135-68.538-68.522v-1.3152zm70.004 0 1.4606-0.16135 68.538-68.522v-1.3152zm-127.76 190.67 52.13 2e-3 -0.88785-1.0781-51.721-0.0479zm185.52 0-52.13 2e-3 0.88785-1.0781 51.721-0.0479zm-178.28-33.712-13.315 19.444 1.4063 3.3003 14.4-21.223zm171.05 0 13.315 19.444-1.4063 3.3003-14.4-21.223zm-178.28 33.712 52.13-2e-3 -0.88785 1.0781-51.721 0.0479zm185.52 0-52.13-2e-3 0.88785 1.0781 51.721 0.0479zm-178.28 33.712-13.315-19.444 1.4063-3.3003 14.4 21.223zm171.05 0 13.315-19.444-1.4063-3.3003-14.4 21.223zm-48.765-152.63-1.2464 0.76688-9.7193 5.9816 0.44804 1.3255 10.417-6.1965 7.197 6.9763-0.24701-2.0045-5.7097-5.7097zm-73.517 0 1.2464 0.76688 9.7193 5.9816-0.44804 1.3255-10.417-6.1965-7.197 6.9763 0.24701-2.0045 5.7097-5.7097zm13.896 9.7061-0.80288 0.72745-1.4622-1.3324-2.0487 6.7114-0.0057 0.0187-0.15389 0.50412-0.09746 0.31929-5.4891 17.982-0.11692 0.38303 0.65772 0.95882 0.14164-0.37549s0.41411 0.99564 0.5178 0.91448c0.10368-0.0812 1.2018-0.30853 1.2018-0.30853l0.63928 0.87052 1.2469-0.47037 0.58185 1.0286 0.35313-0.0948-1.0976 3.5957 1.6119 1.6667 0.113-0.3702 0.69312 0.61626 0.12432-0.40726 0.83651 0.70055 0.11677-0.38256 1.1416 0.76668 4.1304-13.531-0.90893-0.27744-0.64738 2.1208-0.65116-0.82984-0.43194 0.39549-0.91242-0.80585-0.12794 0.41912-0.72613-0.67983-0.11345 0.37168s-0.3652-0.51779-0.39315-0.52632l-0.59629 1.5729 0.37542 0.76673 0.48793-0.29571 0.3345 0.54677 0.45414-0.18502 0.52652 0.85231 0.58918-0.48581 0.61028 0.7655-0.81273 2.6625-1.5e-4 4.8e-4 -0.71454-0.89834-0.22898 0.61033-0.27959-0.76557-0.33525 0.5779-0.14565-0.7247-0.38023 0.56417-0.3913-0.79969-0.18994 0.62227-0.63793-0.87497-0.18994 0.62225-0.13429-0.72122-0.68222 0.47198-0.288-0.76814 1.51e-4 -4.9e-4 0.7014-2.2978 0.88484-0.46848 0.38363 0.42831 0.55278-1.8109 0.3734-1.2233 0.53578-0.39405 0.45964 0.6979 1.4219-1.3339 1.0481-3.4336-0.43334-0.72391-0.69412 0.31276-0.34578-0.63018-0.61361 0.36757-0.58005-0.99021-0.27805 0.91091-0.43162-0.5667 1.3863-4.5417 0.09867-0.32323 2.037-6.6734zm-0.15117 0.77133 1.4824 1.4856-1.6185 5.3023-0.31225 0.14673-0.3299-0.54591-0.51456 0.28382-0.66819-0.64484-0.6238 0.21156-1.2526-0.7179 1.7958-5.883 1.3261 1.1764zm-2.168 6.7485 0.9249 1.0517 0.41816-0.28839 0.33675 0.42966-1.3839 4.5338-1.501 4.9172 0.33823 0.84077 0.36197-0.33796 0.25733 0.52699-0.58854 1.9281-1.4649 0.63238-1.3065 4.2802-0.69936 0.38302-0.74861-1.1514-1.0942 0.50996-0.62751-1.1976-0.57362 0.32684 5.425-17.772 1.1356 0.64112 0.09082-0.29754 0.57512 0.45056zm1.1761 7.4894 0.61807 0.94887 0.44719-0.30385 0.35943 0.55007 0.30576-0.20871-0.59654 1.9543-0.55725 0.49448-0.54988-0.83242s-0.68071 0.47413-0.69276 0.51362c-0.01206 0.0394-0.31155-0.82018-0.31155-0.82018l-0.39569 0.31037-0.30215-0.38723 0.6931-2.2706 0.42996 0.64291zm-4.0059 11.231 0.7636 1.3483-0.77567-1.3087zm0.91913 0.86354 0.47646 0.76139 0.16112-0.56677 0.387 0.73409 0.172-0.56346 0.35389 0.72398 0.17199-0.56345 0.54912 0.78357 0.17199-0.56345s0.13002 0.65565 0.1468 0.66076c0.01679 4e-3 0.39589-0.4951 0.39589-0.4951l0.54764 0.78311-1.07 3.5052-0.92105-1.1121-0.22404 0.73396-0.68439-1.0113-0.22404 0.73396-0.80659-1.2393 0.64361-2.1085-0.398-0.70339zm-12.399-31.02-0.05994 0.77928-0.47697 6.2172-0.0016 0.0196-0.04031 0.52555-0.02584 0.33279-1.403 18.284-0.03566 0.46199-0.03049 0.39946 0.85111 0.7922 0.05633-0.3974s0.62084 0.8816 0.70435 0.7798c0.0835-0.10182 1.1059-0.56276 1.1059-0.56276l0.81339 0.71004 1.1147-0.73071 0.79168 0.87695 0.32401-0.1695-0.22428 2.9264 0.96997-2.8696-0.35243-0.39016 0.03927-0.51418 0.46095 0.46664 0.63562-1.881-0.71675-0.62994-0.04961 0.64906-0.28835-0.6749-0.56276 0.60927-0.44855-0.68678v-5.2e-4l0.18397-2.3952 0.76119-0.65009 0.46767 0.33435 0.01654-0.21446 0.12867-1.6733 0.09767-1.2754 0.43718-0.50126 0.60048 0.58084 1.0971-1.6118 0.27492-3.5791-0.58084-0.61237-0.60926 0.4563-0.47491-0.5395-0.51883 0.49248-0.78186-0.83974-0.07286 0.94929-0.54467-0.45889 0.36328-4.7346 0.02584-0.33693 0.53433-6.9572-2.2138-1.6598-0.62528 0.88522zm4.5801 22.398 0.53382 0.66663 0.41134-0.39481 0.44597 0.46043 0.30644-0.2129 0.58498-1.7306-0.62477-0.34468-0.03359 0.43667-0.8568-0.5054-0.02945 0.38758s-0.46953-0.42566-0.49868-0.42789zm-2.2169-21.515 1.7704 1.1266-0.42426 5.5278-0.27285 0.21135-0.4408-0.46095-0.44028 0.38912-0.79272-0.48369-0.56276 0.3421-1.3792-0.42736 0.47077-6.133 1.5508 0.85886zm-0.64544 7.0585 1.1317 0.82475 0.3452-0.37258 0.4222 0.34623-0.36277 4.7263-0.10232 1.3338-0.185 2.4133-0.05839 0.75758-0.04754 0.62167 0.51315 0.74672 0.27957-0.40876 0.36639 0.45837-0.15451 2.0102-1.2919 0.93638-0.34261 4.4617-0.59893 0.52659-0.98134-0.96067-0.95705 0.73587-0.87333-1.032-0.48834 0.4439 1.4216-18.527 1.248 0.37827 0.02377-0.31057 0.65991 0.31471zm2.7797 7.0533 0.80977 0.79117 0.37052-0.39377 0.47077 0.45837 0.2527-0.27027-0.15606 2.0371-0.43615 0.6041-0.7183-0.69246s-0.56114 0.61097-0.56431 0.65215c-0.0031 0.0411-0.48266-0.73225-0.48266-0.73225l-0.31833 0.38912-0.3793-0.31212 0.18138-2.3673 0.55966 0.53382zm0.86558 10.499-0.01292 0.1695 0.04393-0.13075zm-2.328 1.3353 1.0392 1.1498-1.0423-1.1085zm69.867-8.1387-1.3667 1.4992-1.4928-0.16522-0.24178 0.75105-1.2694-0.53432 0.0301 0.98178-0.82111-0.21408-0.97372 1.2145 2.3 8.3796 1.585 0.48822 0.91803-0.86399 0.95795 0.34798 0.99694-0.93657 1.0557 0.30607 1.1007-1.3473zm-1.98 2.6899 1.1094 0.12248 0.27637-0.30241 0.64298 2.2923-4.2148 1.1822-0.59461-2.1658 0.0686-0.0864 1.6507 0.43167-0.0201-0.70872 0.7341 0.31147zm-1.8555 4.5001 4.2218-1.1842 1.0138 3.6143-0.16836 0.20341-0.94482-0.27438-0.95702 0.89908-0.95787-0.34961-0.94812 0.89443-0.23594-0.0739zm13.221-8.7956-1.6421 1.1912-1.4284-0.46421-0.38892 0.68648-1.1349-0.78041-0.16941 0.96751-0.76071-0.37598-1.1996 0.99206 0.55466 8.6718 1.4532 0.79918 1.074-0.66007 0.8676 0.53482 1.166-0.71517 0.9718 0.51359 1.3508-1.0963zm-2.4839 2.233 1.0616 0.3447 0.3319-0.24015 0.16526 2.375-4.367 0.30385-0.14351-2.2413 0.0847-0.0706 1.529 0.75715 0.12392-0.6981 0.65578 0.45374zm-2.7287 4.0309 4.3742-0.30434 0.26055 3.7447-0.20607 0.16509-0.86965-0.4601-1.1193 0.68654-0.86718-0.53641-1.1097 0.6838-0.21607-0.12016zm-46.561-17.969-2.3723 6.8445 2.8465 3.5889 4.4575-1.0573 2.3723-6.8445-4.5252 1.2526c-0.13636 0.39393-0.27245 0.78794-0.40906 1.1818l2.9433 1.0201-0.95567 2.7572-1.1417 0.27373-2.0087-0.69623-0.24573 0.70896 0.89988 0.3119-1.1004 0.26506-0.69984-0.88903 0.89987 0.3119 0.24573-0.70896-2.0087-0.69623-0.7274-0.92156 0.95567-2.7572 2.9433 1.0201c0.13643-0.3939 0.27287-0.78779 0.40955-1.1816zm0.24021 1.5966 1.8122 2.4658-2.3808-0.82518zm5.887 2.0404-0.56862 1.6406-2.3808-0.82518zm-5.8152 7.2641c-1.1803 0.22753-2.2042 0.42086-3.3846 0.64761l-1.0726 3.0946 2.1149 2.4444 0.14054 0.16576 0.21346-0.0431 3.174-0.61121 1.0726-3.0946c-0.7869-0.90863-1.472-1.6943-2.2583-2.6034zm-0.2811 0.81101 1.689 1.9565-0.78863 2.2753c-1.0388 0.20007-1.4985 0.29072-2.5373 0.49115-0.69193-0.80029-0.99643-1.1558-1.6886-1.9559l0.78863-2.2753zm-4.9168 10.397-1.3854 0.10282-0.6777 0.73863-1.8837 5.4349 0.77103 0.88089 0.24841-0.72279 4.82e-4 1.6e-4 -1.71e-4 4.9e-4 -0.24824 0.72231-4.91e-4 -1.7e-4 -1.2524 3.6378 0.91989 0.31884 1.0333-0.18496 0.69765 0.78489 0.91989 0.31884 1.2677-3.633 4.92e-4 1.7e-4 1.7e-4 -4.9e-4 1.149-0.21432 1.8837-5.4349-0.07669-1.0001-1.0232-0.93765-1.0142 0.28619-0.43994 0.12371-0.26853-0.36927-2.3596 6.8079-0.03216 0.0928-4.91e-4 -1.7e-4 1.7e-4 -5e-4 0.032-0.0923-1.3561-1.5502 1.6898-4.8754 0.37222-0.40642 0.67262-0.0502 0.68143 0.939 0.29971-0.86471zm2.1461 1.6474 0.49728 0.45567 0.04086 0.54959-1.6898 4.8754-2.0246 0.37844 2.0601-5.9437zm-1.4839 6.0313-1.7e-4 4.9e-4 -1.7244 0.32007zm-3.2727 0.36097 0.50337 0.57537-0.52226 1.5068-0.74437 0.13414zm2.0307 0.70385-0.77237 2.2132-0.50169-0.56603 0.52226-1.5068zm23.491-30.853 2.3723 6.8445-2.8465 3.5889-4.4575-1.0573-2.3723-6.8445 4.5252 1.2526c0.13635 0.39393 0.27245 0.78794 0.40905 1.1818l-2.9433 1.0201 0.95567 2.7572 1.1417 0.27373 2.0087-0.69623 0.24573 0.70896-0.89988 0.3119 1.1004 0.26506 0.69984-0.88903-0.89987 0.3119-0.24573-0.70896 2.0087-0.69623 0.72739-0.92156-0.95567-2.7572-2.9433 1.0201c-0.13643-0.3939-0.27287-0.78779-0.40954-1.1816zm-0.24021 1.5966-1.8122 2.4658 2.3808-0.82518zm-5.887 2.0405 0.56863 1.6406 2.3808-0.82518zm5.8152 7.2641c1.1803 0.22753 2.2042 0.42086 3.3846 0.64761l1.0726 3.0946-2.1149 2.4444-0.14054 0.16576-0.21346-0.0431-3.174-0.61121-1.0726-3.0946c0.7869-0.90863 1.472-1.6943 2.2583-2.6034zm0.28109 0.81101-1.689 1.9565 0.78863 2.2753c1.0388 0.20007 1.4986 0.29072 2.5373 0.49115 0.69193-0.80029 0.99643-1.1558 1.6886-1.9559l-0.78863-2.2753zm4.9168 10.397 1.3854 0.10283 0.67769 0.73863 1.8838 5.4349-0.77103 0.88089-0.24841-0.7228-4.8e-4 1.7e-4 1.7e-4 4.9e-4 0.24824 0.72231 4.9e-4 -1.7e-4 1.2524 3.6378-0.91989 0.31884-1.0333-0.18496-0.69765 0.78489-0.91989 0.31884-1.2677-3.633-4.9e-4 1.7e-4 -1.7e-4 -4.9e-4 -1.149-0.21432-1.8837-5.4349 0.0767-1.0001 1.0232-0.93765 1.0142 0.28619 0.43994 0.12371 0.26853-0.36927 2.3596 6.8079 0.0322 0.0928 4.9e-4 -1.8e-4 -1.7e-4 -4.9e-4 -0.032-0.0923 1.3561-1.5502-1.6898-4.8754-0.37222-0.40642-0.67261-0.0502-0.68143 0.93899-0.29971-0.8647zm-2.1461 1.6474-0.49728 0.45567-0.0408 0.54959 1.6898 4.8754 2.0246 0.37844-2.0601-5.9437zm1.4839 6.0313 1.7e-4 4.9e-4 1.7244 0.32007zm3.2727 0.36097-0.50337 0.57537 0.52226 1.5068 0.74437 0.13414zm-2.0307 0.70385 0.77238 2.2132 0.50168-0.56603-0.52226-1.5068zm-46.878 3.3701-0.57154 1.6969-4.6828 13.904-1.2469 0.17767-0.58424 1.7346 0.83391 1.0486-0.65318 1.9394-0.37129 1.1024 1.3141 1.3745 0.63104-0.5525 0.58888 0.96338 0.74113-0.3791 0.66685 0.85332 0.83108-0.40333 0.56123 0.87227 0.77304-0.34109 0.69518 0.83559 0.96028-0.85329 0.86838 1.4692 1.0411-0.66251 0.81698 1.2883 0.78626-0.54385 0.68588 1.0397 0.81345-0.56467 0.69836 1.0739 0.51677-1.5343-0.29798-0.55132 0.0063-0.0186-0.5589-1.0929-0.98674 0.74405-0.82527-1.3544 0.60551-1.7978 2.6446 0.8907-0.87916 2.6103 0.29172 0.56992 1.36-4.0378-3.0789-1.037 4.6257-13.734 1.0107 0.93806 2.2388-0.40743 0.66324-1.9692-2.2657 0.39346-1.4867-1.6573-1.151 0.76887-0.9548-1.4781-1.06 0.79955-0.76968-1.4158-1.0595 0.79971-0.8451-1.4412-1.0771 0.79377-0.79025-1.4227-1.08 0.63738zm1.6001 3.4251 1.057 1.5567 0.89066-0.64173 0.95172 1.2622 0.96211-0.5495 0.23099 0.54947-0.97895 2.9066-5.534-1.8639 1.1752-3.4893 0.61 0.90069zm5.1909 1.8301 1.6205 1.6647-0.85738 2.5456-1.9589-0.65978zm-7.933 2.3448 5.534 1.8639-1.6 4.7504-5.534-1.8639zm6.4155 2.1608 1.9589 0.65978-1.6 4.7504-1.9589-0.65978zm-8.2464 3.2753 5.534 1.8639-1.435 4.2607-5.534-1.8639zm6.4155 2.1608 1.9589 0.65978-1.435 4.2607-1.9589-0.65978zm-8.1887 3.1038 5.534 1.8639-0.60551 1.7978-0.87347 0.63116-0.30185-0.62241s-0.45724 0.36675-0.54294 0.33788c-0.0857-0.0289-0.55263-1.1115-0.55263-1.1115l-0.78826 0.65986-0.57712-1.1197-0.74356 0.52878-0.60321-0.98238-0.74542 0.39183zm6.4155 2.1608 1.9589 0.65978-0.79108 2.3488-0.40212-0.74889-0.79658 0.65707-0.71686-0.69676zm25.841-11.196-5.2543 15.6 0.88536 0.89584-0.58424 1.7346-1.2984 0.33045-0.65318 1.9394-0.37129 1.1024-1.8779 0.2994-0.1682-0.82169-1.0517 0.41081-0.36077-0.75023-1.0472 0.27601-0.41774-0.82393-0.97458 0.35499-0.40917-0.73926-1.0591 0.24476-0.24837-1.2604-1.5803 0.64447-0.42814-1.1573-1.4299 0.53154-0.29703-0.9087-1.1751 0.41288-0.30608-0.94174-1.2057 0.43255 0.51677-1.5343 0.5708-0.2587 0.0063-0.0186 1.1062-0.53206 0.33554 1.1894 1.4765-0.57911 0.60551-1.7978-2.6446-0.8907-0.87916 2.6103-0.57707 0.27731 1.36-4.0378 3.0789 1.037 4.6257-13.734-1.3723 0.13544-1.5361-1.6788 0.66324-1.9692 1.566 1.684 2.1863-0.42017 0.45135 1.3086 1.6545-0.5993 0.36027 1.2779 1.4694-0.66166 0.35978 1.2777 1.5448-0.63625 0.37741 1.2837 1.4899-0.65473 0.47437 1.1609zm-3.3462 1.7592-1.7834 0.60005-0.32094-1.0498-1.5214 0.42929-0.43363-1.0196-0.51634 0.29777-0.97895 2.9066 5.534 1.8639 1.1752-3.4893-1.0306 0.34812zm-5.2404-1.6832-2.2974 0.34516-0.85738 2.5456 1.9589 0.65978zm4.898 6.6663-5.534-1.8639-1.6 4.7504 5.534 1.8639zm-6.4155-2.1608-1.9589-0.65978-1.6 4.7504 1.9589 0.65978zm4.5846 7.5968-5.534-1.8639-1.435 4.2607 5.534 1.8639zm-6.4155-2.1608-1.9589-0.65978-1.435 4.2607 1.9589 0.65978zm4.6423 7.4254-5.534-1.8639-0.60551 1.7978 0.31365 1.031 0.6169-0.31297s0.14219 0.56864 0.22789 0.5975c0.08567 0.0289 1.1125-0.55067 1.1125-0.55067l0.22843 1.0023 1.1369-0.54242 0.27214 0.87087 1.0746-0.41727 0.35648 0.76295zm-6.4155-2.1608-1.9589-0.65978-0.79108 2.3488 0.77325-0.35301 0.23675 1.0051 0.99232-0.1211zm50.954-24.548 0.57154 1.6969 4.6828 13.904 1.2469 0.17767 0.58424 1.7346-0.83391 1.0486 1.0245 3.0417-1.3142 1.3745-0.63104-0.5525-0.58888 0.96338-0.74113-0.3791-0.66685 0.85332-0.83109-0.40333-0.56123 0.87227-0.77304-0.34109-0.69518 0.83559-0.96028-0.85329-0.86838 1.4692-1.0411-0.66251-0.81698 1.2883-0.78625-0.54385-0.68588 1.0397-0.81345-0.56467-0.69836 1.0739-0.51677-1.5343 0.29799-0.55132-6e-3 -0.0186 0.5589-1.0929 0.98674 0.74405 0.82527-1.3544-0.60551-1.7978-2.6446 0.8907 0.87916 2.6103-0.29172 0.56992-1.36-4.0378 3.079-1.037-4.6257-13.734-1.0107 0.93806-2.2388-0.40743-0.66324-1.9692 2.2657 0.39346 1.4866-1.6573 1.151 0.76887 0.9548-1.4781 1.06 0.79955 0.76968-1.4158 1.0595 0.79971 0.8451-1.4412 1.0771 0.79377 0.79026-1.4227 1.08 0.63738zm-1.6001 3.4251-1.057 1.5567-0.89066-0.64173-0.95172 1.2622-0.96211-0.5495-0.23098 0.54947 0.97894 2.9066 5.534-1.8639-1.1752-3.4893-0.60999 0.90069zm-5.1909 1.8301-1.6205 1.6647 0.85739 2.5456 1.9589-0.65978zm7.933 2.3448-5.534 1.8639 1.6 4.7504 5.534-1.8639zm-6.4155 2.1608-1.9589 0.65978 1.6 4.7504 1.9589-0.65978zm8.2464 3.2753-5.534 1.8639 1.435 4.2607 5.534-1.8639zm-6.4155 2.1608-1.9589 0.65978 1.435 4.2607 1.9589-0.65978zm8.1887 3.1038-5.534 1.8639 0.60551 1.7978 0.87347 0.63116 0.30184-0.62241s0.45725 0.36675 0.54295 0.33788c0.0857-0.0289 0.55263-1.1115 0.55263-1.1115l0.78826 0.65986 0.57712-1.1197 0.74355 0.52878 0.60321-0.98238 0.74542 0.39183zm-6.4155 2.1608-1.9589 0.65978 0.79108 2.3488 0.40212-0.74889 0.79658 0.65707 0.71685-0.69676zm-25.841-11.196 0.57154 1.6969 4.6828 13.904-0.88536 0.89584 0.58423 1.7346 1.2984 0.33045 1.0245 3.0417 1.8779 0.2994 0.1682-0.82169 1.0517 0.41081 0.36077-0.75023 1.0472 0.27601 0.41774-0.82393 0.97458 0.35499 0.40917-0.73926 1.059 0.24476 0.24837-1.2604 1.5803 0.64447 0.42814-1.1573 1.4299 0.53154 0.29703-0.9087 1.1751 0.41288 0.30608-0.94174 1.2057 0.43255-0.51677-1.5343-0.5708-0.2587-6e-3 -0.0186-1.1062-0.53206-0.33554 1.1894-1.4765-0.57911-0.60551-1.7978 2.6446-0.8907 0.87916 2.6103 0.57707 0.27731-1.36-4.0378-0.43439 0.14631-2.6446 0.8907-4.6257-13.734 1.3723 0.13544 1.5361-1.6788-0.66324-1.9692-1.566 1.684-2.1864-0.42017-0.45135 1.3086-1.6545-0.5993-0.36026 1.2779-1.4694-0.66166-0.35978 1.2777-1.5448-0.63625-0.37741 1.2837-1.4899-0.65473-0.47437 1.1609zm3.3462 1.7592 1.7834 0.60005 0.32094-1.0498 1.5214 0.42929 0.43363-1.0196 0.51634 0.29777 0.97895 2.9066-5.534 1.8639-1.1752-3.4893 1.0306 0.34812zm5.2404-1.6832 2.2974 0.34515 0.85738 2.5456-1.9589 0.65978zm-4.898 6.6663 5.534-1.8639 1.6 4.7504-5.534 1.8639zm6.4155-2.1608 1.9589-0.65978 1.6 4.7504-1.9589 0.65978zm-4.5846 7.5968 5.534-1.8639 1.435 4.2607-5.534 1.8639zm6.4155-2.1608 1.9589-0.65978 1.435 4.2607-1.9589 0.65978zm-4.6423 7.4254 5.534-1.8639 0.60551 1.7978-0.31364 1.031-0.6169-0.31297s-0.1422 0.56864-0.2279 0.5975c-0.0857 0.0289-1.1124-0.55067-1.1124-0.55067l-0.22843 1.0023-1.137-0.54242-0.27215 0.87087-1.0746-0.41727-0.35648 0.76295zm6.4155-2.1608 1.9589-0.65978 0.79107 2.3488-0.77324-0.35301-0.23675 1.0051-0.99232-0.1211zm-18.589-56.493 6.2184 0.36198s1.6371-4.9959 3.0357-6.9874c0 0-0.49278-11.5-0.57546-14.636l-4.2945-7.2962-0.065-4.4539s-1.7536 0.2575-1.0496 0.17351l-6e-3 3.9906-1.5087 0.7547-1.7541-0.75802-5.2e-4 0.80442zm-2.1e-4 -26.938 3.6499 1.3236 3.7535 4.5478 0.56564 14.194c-1.0644 1.8387-1.8892 3.1052-2.5266 5.0262l-5.4424 0.65418zm2.1e-4 26.938-6.2184 0.36198s-1.6371-4.9959-3.0357-6.9874c0 0 0.49278-11.5 0.57546-14.636l4.2945-7.2962 0.065-4.4539s1.7536 0.2575 1.0496 0.17351l6e-3 3.9906 1.5087 0.7547 1.7541-0.75802 5.2e-4 0.80442zm2.1e-4 -26.938-3.6499 1.3236-3.7535 4.5478-0.56564 14.194c1.0644 1.8387 1.8892 3.1052 2.5266 5.0262l5.4424 0.65418z"/>
   <circle cx="105" cy="105" r="17.804" stroke-width="1.2838"/>
  </g>
  <path id="tailDecal" d="m152.48 302.7-29.425 28.168h3.5104l26.941-26.567 5.4705 0.12299-7.8998 26.444h0.42995l8.3959-28.019-0.45113-0.015zm-94.959 0 29.425 28.168h-3.5104l-26.941-26.567-5.4705 0.12299 7.8998 26.444h-0.42995l-8.3959-28.019 0.45113-0.015z" fill="#000000"/>
 </g>
 <g id="decal" class="exclude">
  <g transform="matrix(-.94769 .31919 .31919 .94769 162.8 -20.905)" style="fill:#ff00ff">
   <path d="m105 202.58-1.4072 0.73081v1.6809l1.4072 0.74908 1.4072-0.74908v-1.6809z" style="fill-opacity:.36747;fill:#ffffff;stroke-width:.35;stroke:#c3c3c3"/>
   <path d="m105 196.97-1.3339-0.80377-1.1693 0.54812v4.4762l1.2972 0.91352 1.206-0.43841 1.206 0.43841 1.2972-0.91352v-4.4762l-1.1693-0.54812z" style="fill-opacity:.36747;fill:#ffffff;stroke-width:.35;stroke:#c3c3c3"/>
   <path d="m105 192.95-1.1331 0.73081v0.89525l1.1331 0.67601 1.1331-0.67601v-0.89525z" style="fill:none;stroke-width:.35;stroke:#c3c3c3"/>
  </g>
  <g transform="rotate(18.614 87.395 133.65)" style="fill:#ff00ff">
   <path d="m105 202.58-1.4072 0.73081v1.6809l1.4072 0.74908 1.4072-0.74908v-1.6809z" style="fill-opacity:.36747;fill:#ffffff;stroke-width:.35;stroke:#c3c3c3"/>
   <path d="m105 196.97-1.3339-0.80377-1.1693 0.54812v4.4762l1.2972 0.91352 1.206-0.43841 1.206 0.43841 1.2972-0.91352v-4.4762l-1.1693-0.54812z" style="fill-opacity:.36747;fill:#ffffff;stroke-width:.35;stroke:#c3c3c3"/>
   <path d="m105 192.95-1.1331 0.73081v0.89525l1.1331 0.67601 1.1331-0.67601v-0.89525z" style="fill:none;stroke-width:.35;stroke:#c3c3c3"/>
  </g>
  <g transform="matrix(-.94486 .32749 .32749 .94486 160.19 -22.773)" style="fill:#ffffff">
   <path d="m105 174.71-1.4208-0.83483-0.80908 0.34958-2.4102-7.2714h4.6402zm4.2e-4 0 1.4208-0.83483 0.80908 0.34958 2.4102-7.2714h-4.6402z" style="fill:#ffffff"/>
   <path d="m105 172.83h-0.57641v0.082h0.57636zm0-5.2129h-1.2131v0.17262h1.213zm0 2.5799h-0.97328v0.1385h0.97319zm-3.0858-3.238 1.6648 6.9218 0.36131 0.2123-0.92647-7.1341zm3.0858 5.871h0.57641v0.082h-0.57636zm0-5.2129h1.2131v0.17262h-1.213zm0 2.5799h0.97328v0.1385h-0.97319zm3.0858-3.238-1.6648 6.9218-0.36131 0.2123 0.92647-7.1341z" style="fill:#000000"/>
   <path d="m105 184.37h-2.7955l1.2889-3.3816 1.5064 0.85833zm0 0h2.7955l-1.2889-3.3816-1.5064 0.85833z" style="fill:#ffffff"/>
   <path d="m105 155.56-0.84992 0.51157v1.151l0.84992 0.52984 0.84992-0.52984v-1.151z" style="fill-opacity:.36747;fill:#ffffff;stroke-width:.35;stroke:#c3c3c3"/>
  </g>
  <g transform="rotate(19.116 92.562 136.73)" style="fill:#ffffff">
   <path d="m105 174.71-1.4208-0.83483-0.80908 0.34958-2.4102-7.2714h4.6402zm4.2e-4 0 1.4208-0.83483 0.80908 0.34958 2.4102-7.2714h-4.6402z" style="fill:#ffffff"/>
   <path d="m105 172.83h-0.57641v0.082h0.57636zm0-5.2129h-1.2131v0.17262h1.213zm0 2.5799h-0.97328v0.1385h0.97319zm-3.0858-3.238 1.6648 6.9218 0.36131 0.2123-0.92647-7.1341zm3.0858 5.871h0.57641v0.082h-0.57636zm0-5.2129h1.2131v0.17262h-1.213zm0 2.5799h0.97328v0.1385h-0.97319zm3.0858-3.238-1.6648 6.9218-0.36131 0.2123 0.92647-7.1341z" style="fill:#000000"/>
   <path d="m105 184.37h-2.7955l1.2889-3.3816 1.5064 0.85833zm0 0h2.7955l-1.2889-3.3816-1.5064 0.85833z" style="fill:#ffffff"/>
   <path d="m105 155.56-0.84992 0.51157v1.151l0.84992 0.52984 0.84992-0.52984v-1.151z" style="fill-opacity:.36747;fill:#ffffff;stroke-width:.35;stroke:#c3c3c3"/>
  </g>
 </g>
 <g id="roundels">
  <image id="roundel_wing" transform="rotate(79.851)" x="20.633" y="-7.0815" width="11.906" height="6.3033" preserveAspectRatio="xMidYMid" xlink:href="file:///D:/Projects/private/OrigamiFighterJet/fe/src/assets/roundels/us_white.svg"/>
 </g>
 <g id="guide" opacity=".7" stroke="#000000" stroke-width=".25">
  <path d="m145.58 260.67 31.465-36.323m-31.465 36.324 31.461 36.327m-31.461-36.329 11.519-13.296 33.426-20.416 13.315 19.444-6.0797 14.268zm0 0 11.519 13.296 33.426 20.416 13.315-19.444-6.0797-14.268zm-5.5766-190.67 69.998-7.7328v-49.668l-10.702-1.8949zm0 3e-6 7.7328-69.998 49.668 5.4974e-6 1.8949 10.702zm-1.9508 190.68 17.759-36.325m-17.759 36.327 17.753 36.328m25.365-115.84 0.7731 35.462m28.056 7.7193-53.878-14.835m-7.5119-60.907 9.3416 75.743m-36.199-102.6 34.675 102.6m-21.032 0-30.392-86.477m-105-137.87 209.97 209.97m-145.55 50.701-31.465-36.323m31.465 36.324-31.461 36.327m31.461-36.329-11.519-13.296-33.426-20.416-13.315 19.444 6.0797 14.268zm0 0-11.519 13.296-33.426 20.416-13.315-19.444 6.0797-14.268zm5.5766-190.67-69.998-7.7328v-49.668l10.702-1.8949zm0 3e-6 -7.7328-69.998-49.668 5.4974e-6 -1.8949 10.702zm1.9508 190.68-17.759-36.325m17.759 36.327-17.753 36.328m-25.365-115.84-0.7731 35.462m-28.056 7.7193 53.878-14.835m7.5119-60.907-9.3416 75.743m36.199-102.6-34.675 102.6m21.032 0 30.392-86.477m105-137.87-209.97 209.97" fill="none" stroke-width=".25"/>
  <rect width="210" height="297" fill="none" stroke-width=".25"/>
  <path d="m-0.0016149 224.35h210" fill="none" stroke-width=".25"/>
  <path d="m0 260.67h210" fill="none" stroke-width=".25"/>
  <path d="m210 104.97-210 0.047" fill="none" stroke-width=".25"/>
 </g>
</svg>
