<?xml version="1.0" encoding="UTF-8" standalone="no"?>
<svg
   width="1160"
   height="481.39368"
   version="1.1"
   id="svg24"
   sodipodi:docname="Roundel_of_South_Korea.svg"
   inkscape:version="1.1 (c68e22c387, 2021-05-23)"
   xmlns:inkscape="http://www.inkscape.org/namespaces/inkscape"
   xmlns:sodipodi="http://sodipodi.sourceforge.net/DTD/sodipodi-0.dtd"
   xmlns="http://www.w3.org/2000/svg"
   xmlns:svg="http://www.w3.org/2000/svg"
   xmlns:rdf="http://www.w3.org/1999/02/22-rdf-syntax-ns#"
   xmlns:cc="http://creativecommons.org/ns#"
   xmlns:dc="http://purl.org/dc/elements/1.1/">
  <defs
     id="defs28">
    <inkscape:path-effect
       effect="powerstroke"
       id="path-effect151"
       is_visible="true"
       lpeversion="1"
       offset_points="0,0 | 1.9704586,0.54965675 | 4,-9.8534364e-16"
       not_jump="false"
       sort_points="true"
       interpolator_type="CentripetalCatmullRom"
       interpolator_beta="0.2"
       start_linecap_type="zerowidth"
       linejoin_type="round"
       miter_limit="4"
       scale_width="1"
       end_linecap_type="zerowidth" />
  </defs>
  <sodipodi:namedview
     id="namedview26"
     pagecolor="#ffffff"
     bordercolor="#666666"
     borderopacity="1.0"
     inkscape:pageshadow="2"
     inkscape:pageopacity="0.0"
     inkscape:pagecheckerboard="0"
     showgrid="false"
     inkscape:zoom="0.80646748"
     inkscape:cx="559.229"
     inkscape:cy="240.55527"
     inkscape:window-width="1600"
     inkscape:window-height="837"
     inkscape:window-x="-8"
     inkscape:window-y="-8"
     inkscape:window-maximized="1"
     inkscape:current-layer="g3033" />
  <metadata
     id="metadata2">
    <rdf:RDF>
      <cc:Work
         rdf:about="">
        <dc:format>image/svg+xml</dc:format>
        <dc:type
           rdf:resource="http://purl.org/dc/dcmitype/StillImage" />
        <dc:title>Roundel of the Republic of Korea Air Force</dc:title>
      </cc:Work>
    </rdf:RDF>
  </metadata>
  <rect
     width="300"
     height="40"
     y="300"
     id="rect4" />
  <rect
     width="300"
     height="40"
     y="220"
     id="rect6" />
  <rect
     width="300"
     height="40"
     y="140"
     id="rect8" />
  <rect
     width="300"
     height="40"
     x="860"
     y="300"
     id="rect10" />
  <rect
     width="300"
     height="40"
     x="860"
     y="220"
     id="rect12" />
  <rect
     width="300"
     height="40"
     x="860"
     y="140"
     id="rect14" />
  <g
     transform="matrix(10,0,0,10,580,240.69684)"
     id="g3033">
    <path
       d="M 19.969223,13.312781 A 24,24 0 1 0 -19.969223,-13.312781 18,18 0 1 0 9.9846114,6.6563906"
       id="path42"
       inkscape:connector-curvature="0"
       style="fill:#cd2e3a;fill-opacity:1" />
    <path
       d="M -19.969223,-13.312781 A 12,12 0 1 0 0,0 12,12 0 0 1 19.969223,13.312781 24,24 0 0 1 -19.969223,-13.312781"
       id="path44"
       inkscape:connector-curvature="0"
       style="fill:#0047a0;fill-opacity:1" />
    <path
       d="m -19.969223,-13.312781 c 0,0 0.171026,-0.248901 0,0 -0.703727,1.024166 -1.48992,2.491298 -1.890411,4.3935706 -0.292599,1.3898043 -0.368337,2.9741434 -0.06745,4.6513292 0.261265,1.4563417 0.804172,2.9575738 1.697339,4.36900762 0.830353,1.31217278 1.954863,2.53089898 3.392124,3.52202778 1.393601,0.9610211 2.930531,1.6064006 4.525963,1.9333446 1.594467,0.326746 3.2184045,0.3294538 4.7768128,0.035852 C -5.9246937,5.2890005 -4.4137605,4.6753905 -3.0815295,3.8096479 -1.8257258,2.9935711 -0.7550006,1.9714389 0.10668931,0.80457335 0.22608251,0.64289592 0.34303222,0.47632594 0.45719845,0.30479824 1.2950293,-0.95418193 2.372382,-2.0544441 3.6665372,-2.9218717 4.8758084,-3.7324044 6.2510748,-4.322804 7.7259303,-4.6369399 c 1.432341,-0.3050801 2.9362467,-0.3442918 4.4269887,-0.084515 1.494378,0.26041 2.953452,0.8174654 4.29617,1.6811 1.387071,0.892163 2.495913,2.0087646 3.335829,3.23235576 0.904607,1.31783504 1.48613,2.74161734 1.796093,4.14509644 0.357108,1.6169442 0.347984,3.1689912 0.112953,4.5506201 -0.321546,1.890199 -1.045967,3.376224 -1.724741,4.425064 -0.164419,0.254059 0,0 0,0 0,0 -0.171278,0.249487 0,0 0.705149,-1.027135 1.489091,-2.494444 1.887915,-4.3940449 0.291748,-1.3895995 0.36659,-2.97346 0.065,-4.6498657 C 21.660388,2.8138826 21.117281,1.3135596 20.223821,-0.09722045 19.394051,-1.4074323 18.270188,-2.6253321 16.832907,-3.6160791 15.441321,-4.5753273 13.905696,-5.2206056 12.309974,-5.5476347 10.718809,-5.8737302 9.0961025,-5.8775175 7.5364784,-5.5842083 5.930735,-5.2822255 4.4199176,-4.6710647 3.0846769,-3.8048665 1.6550031,-2.8774076 0.46257411,-1.6822261 -0.45719731,-0.30479995 -0.56181484,-0.14815116 -0.66877306,0.0039896 -0.77776229,0.1517062 -1.5636077,1.2167876 -2.5325501,2.1563207 -3.669689,2.9170935 c -1.2066371,0.8072686 -2.5808645,1.3976237 -4.0578683,1.7117034 -1.4293964,0.3039558 -2.9321517,0.3436973 -4.4236767,0.083794 -1.491788,-0.259949 -2.950024,-0.815839 -4.29314,-1.6793121 -1.385464,-0.890697 -2.494163,-2.0058514 -3.334616,-3.22918532 -0.904264,-1.31621368 -1.486381,-2.73884268 -1.797076,-4.14217978 -0.357786,-1.6160333 -0.349609,-3.1675881 -0.115403,-4.5491567 0.320831,-1.8925594 1.045597,-3.3790454 1.722246,-4.4255384 0.163975,-0.253601 0,0 0,0 z"
       id="path67"
       inkscape:connector-curvature="0"
       style="fill:#ffffff;fill-opacity:1;fill-rule:nonzero;stroke:none;stroke-width:0.32"
       inkscape:path-effect="#path-effect151"
       inkscape:original-d="m -19.969223,-13.312781 c -3.676226,5.5143524 -2.186125,12.96477487 3.328224,16.6409978 C -11.126651,7.0044397 -3.6762254,5.5143525 0,0 3.6762255,-5.5143523 11.126651,-7.0044394 16.640999,-3.3282166 22.155348,0.3480063 23.645448,7.7984286 19.969223,13.312781" />
  </g>
</svg>
