<svg width="256" height="256" version="1.1" viewBox="0 0 67.733 67.733" xmlns="http://www.w3.org/2000/svg">
 <g>
  <g transform="matrix(.29697 0 0 .29697 2.0335 -12.211)">
   <circle cx="107.19" cy="152.26" r="95.928" fill="#800080" stop-color="#000000" stroke="#4d4d4d" stroke-width=".265"/>
   <path transform="scale(.26458)" d="m405.14 230.41-72.131 196.92-33.123 37.939-7.7637 65.005-144.62 129.65 7.6543 70.352 79.701 31.631-35.279 40.4 17.375 50.053 89.02 10.754 99.164-44.104 99.166 44.104 89.018-10.754 17.377-50.053-35.279-40.4 79.701-31.631 7.6543-70.352-144.62-129.65-7.7656-65.005-33.121-37.939z" fill="#ffffff"/>
   <g>
    <path d="m107.19 87.746s10.803 1.3889 14.448 25.953c3.4228 23.07 5.2058 32.185 17.487 41.867 6.4211 5.0621 35.99 22.223 16.468 32.589l-19.354 10.277s18.34 9.0191 13.815 17.402c-7.3982 13.707-42.867-5.0708-42.867-5.0708zm3e-3 0s-10.803 1.3884-14.449 25.952c-3.4239 23.07-5.2073 32.185-17.489 41.866-6.4214 5.0618-35.991 22.221-16.469 32.588l19.354 10.278s-18.34 9.0183-13.816 17.402c7.3976 13.707 42.867-5.0689 42.867-5.0689z" fill="#800080"/>
    <ellipse cx="106.99" cy="109.8" rx="6.6801" ry="12.038" fill="#ffffff" stop-color="#000000"/>
    <path transform="matrix(.28927 0 0 .28927 -9.6477 -.26683)" d="m462.1 678.52c-3.0793 2.2372-53.159-33.539-56.965-33.485-3.7475 0.0522-51.789 37.246-54.821 35.043-3.0792-2.2373 15.47-60.921 14.244-64.524-1.2077-3.5479-51.427-37.744-50.269-41.309 1.1762-3.6199 62.72-4.1128 65.768-6.3927 3.001-2.245 20.005-60.573 23.753-60.573 3.8062 5e-5 23.293 58.379 26.403 60.573 3.0625 2.1604 63.791 0.30798 64.949 3.8724 1.1761 3.6199-48.324 40.193-49.45 43.829-1.1083 3.5802 19.42 60.764 16.387 62.967z" fill="#ffffff" stop-color="#000000"/>
   </g>
  </g>
 </g>
</svg>
