<?xml version="1.0" encoding="UTF-8" standalone="no"?>
<svg
   xmlns:dc="http://purl.org/dc/elements/1.1/"
   xmlns:cc="http://creativecommons.org/ns#"
   xmlns:rdf="http://www.w3.org/1999/02/22-rdf-syntax-ns#"
   xmlns:svg="http://www.w3.org/2000/svg"
   xmlns="http://www.w3.org/2000/svg"
   xmlns:sodipodi="http://sodipodi.sourceforge.net/DTD/sodipodi-0.dtd"
   xmlns:inkscape="http://www.inkscape.org/namespaces/inkscape"
   version="1.0"
   width="200"
   height="200"
   id="svg1399"
   sodipodi:docname="Roundel_of_Singapore.svg"
   inkscape:version="0.92.5 (2060ec1f9f, 2020-04-08)">
  <metadata
     id="metadata31">
    <rdf:RDF>
      <cc:Work
         rdf:about="">
        <dc:format>image/svg+xml</dc:format>
        <dc:type
           rdf:resource="http://purl.org/dc/dcmitype/StillImage" />
        <dc:title />
      </cc:Work>
    </rdf:RDF>
  </metadata>
  <sodipodi:namedview
     pagecolor="#ffffff"
     bordercolor="#666666"
     borderopacity="1"
     objecttolerance="10"
     gridtolerance="10"
     guidetolerance="10"
     inkscape:pageopacity="0"
     inkscape:pageshadow="2"
     inkscape:window-width="1920"
     inkscape:window-height="1017"
     id="namedview29"
     showgrid="false"
     inkscape:zoom="4.24"
     inkscape:cx="100"
     inkscape:cy="100"
     inkscape:window-x="-8"
     inkscape:window-y="-8"
     inkscape:window-maximized="1"
     inkscape:current-layer="svg1399"
     inkscape:snap-global="false"
     fit-margin-top="0"
     fit-margin-left="0"
     fit-margin-right="0"
     fit-margin-bottom="0"
     inkscape:snap-bbox="true"
     inkscape:bbox-paths="true"
     inkscape:bbox-nodes="true"
     inkscape:snap-bbox-edge-midpoints="true"
     inkscape:snap-bbox-midpoints="true"
     inkscape:object-paths="true"
     inkscape:snap-intersection-paths="true"
     inkscape:object-nodes="true"
     inkscape:snap-smooth-nodes="true"
     inkscape:snap-midpoints="true"
     inkscape:snap-object-midpoints="true"
     inkscape:snap-center="true"
     inkscape:snap-text-baseline="true"
     inkscape:snap-page="true"
     inkscape:document-rotation="0" />
  <defs
     id="defs1413" />
  <g
     transform="matrix(0.42011476,0,0,0.42011476,77.466536,68.924195)"
     id="g1048">
    <circle
       r="223.0302"
       cy="73.969803"
       cx="53.636448"
       id="path1044"
       style="opacity:1;fill:#ffffff;fill-opacity:1;stroke:#ce1126;stroke-width:30;stroke-linecap:butt;stroke-linejoin:miter;stroke-miterlimit:4;stroke-dasharray:none;stroke-dashoffset:1.71490002;stroke-opacity:1;paint-order:fill markers stroke" />
    <path
       sodipodi:nodetypes="ccsscccscccccsssccsscsscccccssssccscscccssccscsccccscsccssccssscccssscscsscccccccccccccccssccsssc"
       inkscape:connector-curvature="0"
       id="rect32"
       d="m 48.102138,-92.294208 c -11.25711,0.0463 -23.75715,1.698579 -33.81189,9.515693 -4.8717295,4.181226 -10.6106395,10.792521 -15.5711495,11.752254 -10.3222405,1.997099 -18.5004405,0.850998 -25.3989605,4.755267 -6.16043,3.486544 -10.47717,7.988203 -13.89063,13.122712 l 0.0744,0.349849 h 71.31244 c 12.26214,-13.817319 34.29561,-23.628532 56.565552,-23.628532 15.45594,0 24.57741,2.246747 40.85646,9.949889 -13.64091,-14.01233 -38.28813,-25.634552 -80.136222,-25.817132 z M 87.3819,-70.827823 c -18.453762,0 -37.146062,7.619852 -48.670922,18.02939 h 1.88205 19.67529 c 21.310752,-10e-7 39.052332,5.432387 53.249972,14.572237 36.58549,23.552214 50.8669,57.407643 50.36178,89.839993 -0.35804,22.98894 -7.99306,45.282309 -20.13107,63.057123 0.64984,-0.44036 1.29773,-0.88361 1.94252,-1.33222 28.35119,-19.724873 49.8126,-49.196253 45.78635,-83.628473 -2.21389,-18.933059 -9.59189,-40.64314 -28.24686,-62.021538 -21.96549,-25.172223 -51.08218,-38.118145 -75.84911,-38.516512 z m -149.006402,23.629049 c -1.00646,0 -3.46831,0.493868 -4.37182,0.765844 -8.44622,2.542493 -15.04191,6.712678 -14.57896,17.090947 4.24386,-2.776182 8.15666,-3.051494 9.63817,-3.051494 v 4.450891 c -8.68957,0 -16.17468,6.537578 -13.01781,14.791862 l 6.5872,17.2237527 c 6.23208,-6.232089 20.09306,-5.913157 23.25439,-5.913157 3.46653,0 6.48442,0.334139 9.00281,0.93567486 8.49477,2.02903614 12.09272,8.89704524 3.38102,15.48957344 -2.72815,2.064518 -7.35947,3.296006 -13.83294,3.38236 -6.29013,0.08391 -13.93571,-2.851066 -21.31901,-11.1721352 -9.68111,16.4860192 -2.38517,33.5815022 3.61735,40.2569722 7.78961,-12.66852 25.02277,-11.58689 39.29321,-11.58689 h 15.9737 c 9.8443305,-0.0353 19.1699505,-2.3311 26.5467005,-7.160284 7.3704295,-4.82504 12.8906795,-12.116065 15.3261995,-22.7422832 1.29591,-6.27483924 0.57971,-14.6339119 -2.01745,-21.3573498 l -1.47071,-3.808553 4.08192,0.304019 c 5.94152,0.442521 8.7653,-0.389496 13.70149,-2.473912 7.07595,-2.987989 12.13032,-10.508829 12.1915,-15.464689 0.0347,-2.810468 -0.87294,-5.290868 -2.4846,-7.050733 -1.61165,-1.759866 -3.92335,-2.910416 -7.28534,-2.910416 h -55.26563 c 0,0 -0.74628,6.735192 -7.71741,6.735192 -6.99446,0 -8.18513,-6.735192 -8.18513,-6.735192 h -8.72566 -4.05505 -10.419 z m 114.36201,0 c 2.18156,2.803933 3.27001,6.354315 3.22461,10.031429 -0.008,0.671204 -0.0634,1.344862 -0.15503,2.018481 36.219352,10.207768 58.739772,39.9585028 58.162332,72.219881 -0.20171,11.27055 -4.06219,21.80982 -9.8025,32.54685 -9.60261,17.96132 -24.36095,28.505609 -34.472822,43.711033 -11.79087,17.73017 -13.08397,32.98579 -10.48773,45.18327 22.461542,-12.02702 47.332542,-21.79546 70.296992,-34.98236 16.86983,-18.03989 28.35075,-44.631873 28.77705,-72.003863 0.47893,-30.75087 -12.68973,-62.444878 -47.79295,-85.042869 -13.26611,-8.540169 -29.85563,-13.681853 -50.219142,-13.681852 z m 1.48932,17.421158 c -1.60899,3.548425 -4.25878,6.8657 -7.63158,9.493994 14.07224,14.1003456 17.47965,32.044222 14.59343,49.190279 -3.03636,18.03793 -12.76681,35.39258 -24.11171,48.0627 -21.22117,23.700043 -46.7186795,52.861833 -47.15991,80.653983 -0.22877,14.40942 4.5297705,28.63068 17.6738505,42.9333 1.05193,-1.4636 2.17015,-2.94217 3.3532895,-4.43798 11.63821,-14.71385 26.63571,-25.52119 43.17152,-34.81596 -3.28078,-13.78395 -2.12143,-31.4729 10.91458,-51.07543 C 75.841548,93.970197 90.3422,83.600087 99.22924,66.977197 c 5.51406,-10.31383 8.96109,-19.95092 9.14104,-30.00592 0.53017,-29.6207622 -20.02442,-57.165303 -54.143452,-66.748893 z m -12.52069,12.543421 c -0.44595,0.217723 -0.89735,0.427344 -1.35754,0.621667 -4.36131,1.84167 -7.88255,2.406025 -12.01322,2.563151 l 0.12609,0.163298 c 0.93538,3.328816 1.47796,6.7657029 1.62626,10.1962747 0.19147,3.59378786 -0.0497,7.1294568 -0.73329,10.4210701 l -0.006,0.02687 -0.006,0.02739 c -0.29637,1.29662 -0.63976,2.553055 -1.02319,3.7739302 -0.0327,0.106269 -0.0646,0.212952 -0.0982,0.318844 -0.0169,0.05336 -0.0351,0.105444 -0.0522,0.158646 -0.0198,0.06071 -0.0405,0.120865 -0.0605,0.181383 -7.06551,21.658358 -27.68280951,29.757628 -44.73371,41.593848 -24.08008,16.03832 -39.96555,29.60059 -47.51441,42.198969 -9.66161,16.124384 -12.3526,31.634544 -10.29188,49.869304 3.67012,32.47589 28.73525,67.1051 73.60274049,95.35336 C -5.6684815,228.53695 -3.1712615,217.36441 4.3816185,205.32173 -10.225202,189.78985 -15.937982,173.60845 -15.682782,157.53395 c 0.49302,-31.05387 27.36081,-60.592794 48.58773,-84.299253 10.70214,-11.95227 19.95585,-28.58783 22.76192,-45.257699 2.73103,-16.224137 -0.39058,-32.2902233 -13.96091,-45.211193 z"
       style="opacity:1;fill:#ce1126;fill-opacity:1;stroke:none;stroke-width:0.2;stroke-linecap:butt;stroke-linejoin:miter;stroke-miterlimit:4;stroke-dasharray:none;stroke-dashoffset:1.71490002;stroke-opacity:1;paint-order:fill markers stroke" />
  </g>
</svg>
